<mxfile host="app.diagrams.net" modified="2022-04-13T10:48:48.613Z" agent="5.0 (Windows NT 10.0; Win64; x64) AppleWebKit/537.36 (KHTML, like Gecko) Chrome/98.0.4758.132 YaBrowser/22.3.1.895 Yowser/2.5 Safari/537.36" etag="IHBw-e9Ywp_0dKYFXTXv" version="17.2.4" type="github">
  <diagram id="R2lEEEUBdFMjLlhIrx00" name="Page-1">
    <mxGraphModel dx="1790" dy="839" grid="1" gridSize="10" guides="1" tooltips="1" connect="1" arrows="1" fold="1" page="1" pageScale="1" pageWidth="850" pageHeight="1100" math="0" shadow="0" extFonts="Permanent Marker^https://fonts.googleapis.com/css?family=Permanent+Marker">
      <root>
        <mxCell id="0" />
        <mxCell id="1" parent="0" />
        <mxCell id="oi4AtSMqY_xu79mHSdlo-8" style="edgeStyle=orthogonalEdgeStyle;rounded=0;orthogonalLoop=1;jettySize=auto;html=1;exitX=0.5;exitY=1;exitDx=0;exitDy=0;entryX=0.5;entryY=0;entryDx=0;entryDy=0;" edge="1" parent="1" source="oi4AtSMqY_xu79mHSdlo-1" target="oi4AtSMqY_xu79mHSdlo-3">
          <mxGeometry relative="1" as="geometry" />
        </mxCell>
        <mxCell id="oi4AtSMqY_xu79mHSdlo-1" value="игра" style="rounded=0;whiteSpace=wrap;html=1;" vertex="1" parent="1">
          <mxGeometry x="380" y="70" width="120" height="60" as="geometry" />
        </mxCell>
        <mxCell id="oi4AtSMqY_xu79mHSdlo-9" style="edgeStyle=orthogonalEdgeStyle;rounded=0;orthogonalLoop=1;jettySize=auto;html=1;exitX=0;exitY=0.5;exitDx=0;exitDy=0;" edge="1" parent="1" source="oi4AtSMqY_xu79mHSdlo-3" target="oi4AtSMqY_xu79mHSdlo-5">
          <mxGeometry relative="1" as="geometry" />
        </mxCell>
        <mxCell id="oi4AtSMqY_xu79mHSdlo-10" style="edgeStyle=orthogonalEdgeStyle;rounded=0;orthogonalLoop=1;jettySize=auto;html=1;exitX=0.5;exitY=1;exitDx=0;exitDy=0;entryX=0.5;entryY=0;entryDx=0;entryDy=0;" edge="1" parent="1" source="oi4AtSMqY_xu79mHSdlo-3" target="oi4AtSMqY_xu79mHSdlo-4">
          <mxGeometry relative="1" as="geometry" />
        </mxCell>
        <mxCell id="oi4AtSMqY_xu79mHSdlo-3" value="главное меню" style="rounded=0;whiteSpace=wrap;html=1;" vertex="1" parent="1">
          <mxGeometry x="380" y="170" width="120" height="60" as="geometry" />
        </mxCell>
        <mxCell id="oi4AtSMqY_xu79mHSdlo-13" style="edgeStyle=orthogonalEdgeStyle;rounded=0;orthogonalLoop=1;jettySize=auto;html=1;exitX=1;exitY=0.5;exitDx=0;exitDy=0;entryX=0;entryY=0.5;entryDx=0;entryDy=0;" edge="1" parent="1" source="oi4AtSMqY_xu79mHSdlo-4" target="oi4AtSMqY_xu79mHSdlo-7">
          <mxGeometry relative="1" as="geometry" />
        </mxCell>
        <mxCell id="oi4AtSMqY_xu79mHSdlo-4" value="настройки" style="rounded=0;whiteSpace=wrap;html=1;" vertex="1" parent="1">
          <mxGeometry x="380" y="260" width="120" height="60" as="geometry" />
        </mxCell>
        <mxCell id="oi4AtSMqY_xu79mHSdlo-11" style="edgeStyle=orthogonalEdgeStyle;rounded=0;orthogonalLoop=1;jettySize=auto;html=1;exitX=1;exitY=0.5;exitDx=0;exitDy=0;entryX=0;entryY=0.5;entryDx=0;entryDy=0;" edge="1" parent="1" source="oi4AtSMqY_xu79mHSdlo-5" target="oi4AtSMqY_xu79mHSdlo-4">
          <mxGeometry relative="1" as="geometry" />
        </mxCell>
        <mxCell id="oi4AtSMqY_xu79mHSdlo-12" style="edgeStyle=orthogonalEdgeStyle;rounded=0;orthogonalLoop=1;jettySize=auto;html=1;exitX=0.5;exitY=1;exitDx=0;exitDy=0;entryX=0.5;entryY=0;entryDx=0;entryDy=0;" edge="1" parent="1" source="oi4AtSMqY_xu79mHSdlo-5" target="oi4AtSMqY_xu79mHSdlo-6">
          <mxGeometry relative="1" as="geometry" />
        </mxCell>
        <mxCell id="oi4AtSMqY_xu79mHSdlo-5" value="сцена диалогов" style="rounded=0;whiteSpace=wrap;html=1;" vertex="1" parent="1">
          <mxGeometry x="230" y="260" width="120" height="60" as="geometry" />
        </mxCell>
        <mxCell id="oi4AtSMqY_xu79mHSdlo-6" value="сцена боя" style="rounded=0;whiteSpace=wrap;html=1;" vertex="1" parent="1">
          <mxGeometry x="230" y="360" width="120" height="60" as="geometry" />
        </mxCell>
        <mxCell id="oi4AtSMqY_xu79mHSdlo-7" value="сохранение/загрузка" style="rounded=0;whiteSpace=wrap;html=1;" vertex="1" parent="1">
          <mxGeometry x="530" y="260" width="120" height="60" as="geometry" />
        </mxCell>
      </root>
    </mxGraphModel>
  </diagram>
</mxfile>
